
#
# object mortar
#

v  6.4200 6.4200 17.5787
v  3.4745 8.3882 17.5787
v  0.0000 9.0793 17.5787
v  9.0793 -0.0000 17.5787
v  -3.4745 8.3882 17.5787
v  -6.4200 6.4200 17.5787
v  -9.0793 -0.0000 17.5787
v  -8.3882 3.4745 17.5787
v  -8.3882 -3.4745 17.5787
v  -6.4200 -6.4200 17.5787
v  -0.0000 -9.0793 17.5787
v  -3.4745 -8.3882 17.5787
v  3.4745 -8.3882 17.5787
v  6.4200 -6.4200 17.5787
v  8.3882 -3.4745 17.5787
v  8.3882 3.4745 17.5787
v  10.4947 0.0000 -7.2102
v  9.6958 -4.0161 -7.2102
v  8.3500 -3.4587 -10.8833
v  9.0380 0.0000 -10.8833
v  7.4209 -7.4209 -7.2102
v  6.3908 -6.3908 -10.8833
v  4.0161 -9.6958 -7.2102
v  3.4587 -8.3500 -10.8833
v  -0.0000 -10.4947 -7.2102
v  -0.0000 -9.0380 -10.8833
v  -4.0161 -9.6958 -7.2102
v  -3.4587 -8.3500 -10.8833
v  -7.4209 -7.4209 -7.2102
v  -6.3908 -6.3908 -10.8833
v  -9.6958 -4.0161 -7.2102
v  -8.3500 -3.4587 -10.8833
v  -10.4947 -0.0000 -7.2102
v  -9.0380 -0.0000 -10.8833
v  -9.6958 4.0161 -7.2102
v  -8.3500 3.4587 -10.8833
v  -7.4209 7.4209 -7.2102
v  -6.3908 6.3908 -10.8833
v  -4.0161 9.6958 -7.2102
v  -3.4587 8.3500 -10.8833
v  0.0000 10.4947 -7.2102
v  0.0000 9.0380 -10.8833
v  4.0161 9.6958 -7.2102
v  3.4587 8.3500 -10.8833
v  7.4209 7.4209 -7.2102
v  6.3908 6.3908 -10.8833
v  9.6958 4.0161 -7.2102
v  8.3500 3.4587 -10.8833
v  6.7560 -2.7984 -14.5563
v  7.3127 0.0000 -14.5563
v  5.1709 -5.1709 -14.5563
v  2.7984 -6.7560 -14.5563
v  -0.0000 -7.3127 -14.5563
v  -2.7984 -6.7560 -14.5563
v  -5.1709 -5.1709 -14.5563
v  -6.7560 -2.7984 -14.5563
v  -7.3127 -0.0000 -14.5563
v  -6.7560 2.7984 -14.5563
v  -5.1709 5.1709 -14.5563
v  -2.7984 6.7560 -14.5563
v  0.0000 7.3127 -14.5563
v  2.7984 6.7560 -14.5563
v  5.1709 5.1709 -14.5563
v  6.7560 2.7984 -14.5563
v  4.9138 -2.0354 -18.2294
v  5.3187 0.0000 -18.2294
v  3.7609 -3.7609 -18.2294
v  2.0354 -4.9138 -18.2294
v  -0.0000 -5.3187 -18.2294
v  -2.0354 -4.9138 -18.2294
v  -3.7609 -3.7609 -18.2294
v  -4.9138 -2.0354 -18.2294
v  -5.3187 -0.0000 -18.2294
v  -4.9138 2.0354 -18.2294
v  -3.7609 3.7609 -18.2294
v  -2.0354 4.9138 -18.2294
v  0.0000 5.3187 -18.2294
v  2.0354 4.9138 -18.2294
v  3.7609 3.7609 -18.2294
v  4.9138 2.0354 -18.2294
v  2.8234 -1.1695 -21.9025
v  3.0561 0.0000 -21.9025
v  2.1610 -2.1610 -21.9025
v  1.1695 -2.8234 -21.9025
v  0.0000 -3.0561 -21.9025
v  -1.1695 -2.8234 -21.9025
v  -2.1610 -2.1610 -21.9025
v  -2.8234 -1.1695 -21.9025
v  -3.0561 0.0000 -21.9025
v  -2.8234 1.1695 -21.9025
v  -2.1610 2.1610 -21.9025
v  -1.1695 2.8234 -21.9025
v  0.0000 3.0561 -21.9025
v  1.1695 2.8234 -21.9025
v  2.1610 2.1610 -21.9025
v  2.8234 1.1695 -21.9025
v  0.0000 0.0000 -25.5756
v  10.4947 0.0000 -1.3352
v  9.6958 -4.0161 -1.3352
v  9.6958 4.0161 -1.3352
v  7.4209 7.4209 -1.3352
v  4.0161 9.6958 -1.3352
v  0.0000 10.4947 -1.3352
v  -4.0161 9.6958 -1.3352
v  -7.4209 7.4209 -1.3352
v  -9.6958 4.0161 -1.3352
v  -10.4947 -0.0000 -1.3352
v  -9.6958 -4.0161 -1.3352
v  -7.4209 -7.4209 -1.3352
v  -4.0161 -9.6958 -1.3352
v  -0.0000 -10.4947 -1.3352
v  4.0161 -9.6958 -1.3352
v  7.4209 -7.4209 -1.3352
v  9.6958 -4.0161 16.2897
v  10.4947 -0.0000 16.2897
v  9.6958 4.0161 16.2897
v  7.4209 7.4209 16.2897
v  4.0161 9.6958 16.2897
v  0.0000 10.4947 16.2897
v  -4.0161 9.6958 16.2897
v  -7.4209 7.4209 16.2897
v  -9.6958 4.0161 16.2897
v  -10.4947 -0.0000 16.2897
v  -9.6958 -4.0161 16.2897
v  -7.4209 -7.4209 16.2897
v  -4.0161 -9.6958 16.2897
v  -0.0000 -10.4947 16.2897
v  4.0161 -9.6958 16.2897
v  7.4209 -7.4209 16.2897
v  10.4947 -0.0000 10.4147
v  9.6958 -4.0161 10.4147
v  9.6958 -4.0161 4.5398
v  10.4947 -0.0000 4.5398
v  9.6958 4.0161 10.4147
v  9.6958 4.0161 4.5398
v  7.4209 7.4209 10.4147
v  7.4209 7.4209 4.5398
v  4.0161 9.6958 10.4147
v  4.0161 9.6958 4.5398
v  0.0000 10.4947 10.4147
v  0.0000 10.4947 4.5398
v  -4.0161 9.6958 10.4147
v  -4.0161 9.6958 4.5398
v  -7.4209 7.4209 10.4147
v  -7.4209 7.4209 4.5398
v  -9.6958 4.0161 10.4147
v  -9.6958 4.0161 4.5398
v  -10.4947 -0.0000 10.4147
v  -10.4947 -0.0000 4.5398
v  -9.6958 -4.0161 10.4147
v  -9.6958 -4.0161 4.5398
v  -7.4209 -7.4209 10.4147
v  -7.4209 -7.4209 4.5398
v  -4.0161 -9.6958 10.4147
v  -4.0161 -9.6958 4.5398
v  -0.0000 -10.4947 10.4147
v  -0.0000 -10.4947 4.5398
v  4.0161 -9.6958 10.4147
v  4.0161 -9.6958 4.5398
v  7.4209 -7.4209 10.4147
v  7.4209 -7.4209 4.5398
# 161 vertices

vn 0.2821 0.2821 0.9170
vn 0.1527 0.3686 0.9170
vn -0.0000 0.3989 0.9170
vn 0.3989 -0.0000 0.9170
vn -0.1527 0.3686 0.9170
vn -0.2821 0.2821 0.9170
vn -0.3989 -0.0000 0.9170
vn -0.3686 0.1527 0.9170
vn -0.3686 -0.1527 0.9170
vn -0.2821 -0.2821 0.9170
vn 0.0000 -0.3989 0.9170
vn -0.1527 -0.3686 0.9170
vn 0.1527 -0.3686 0.9170
vn 0.2821 -0.2821 0.9170
vn 0.3686 -0.1527 0.9170
vn 0.3686 0.1527 0.9170
vn 0.9830 -0.0000 -0.1835
vn 0.9082 -0.3762 -0.1835
vn 0.8485 -0.3514 -0.3957
vn 0.9184 -0.0000 -0.3957
vn 0.6951 -0.6951 -0.1835
vn 0.6494 -0.6494 -0.3957
vn 0.3762 -0.9082 -0.1835
vn 0.3514 -0.8485 -0.3957
vn -0.0000 -0.9830 -0.1835
vn 0.0000 -0.9184 -0.3957
vn -0.3762 -0.9082 -0.1835
vn -0.3514 -0.8485 -0.3957
vn -0.6951 -0.6951 -0.1835
vn -0.6494 -0.6494 -0.3957
vn -0.9082 -0.3762 -0.1835
vn -0.8485 -0.3514 -0.3957
vn -0.9830 -0.0000 -0.1835
vn -0.9184 -0.0000 -0.3957
vn -0.9082 0.3762 -0.1835
vn -0.8485 0.3514 -0.3957
vn -0.6951 0.6951 -0.1835
vn -0.6494 0.6494 -0.3957
vn -0.3762 0.9082 -0.1835
vn -0.3514 0.8485 -0.3957
vn 0.0000 0.9830 -0.1835
vn -0.0000 0.9184 -0.3957
vn 0.3762 0.9082 -0.1835
vn 0.3514 0.8485 -0.3957
vn 0.6951 0.6951 -0.1835
vn 0.6494 0.6494 -0.3957
vn 0.9082 0.3762 -0.1835
vn 0.8485 0.3514 -0.3957
vn 0.8251 -0.3418 -0.4499
vn 0.8931 -0.0000 -0.4499
vn 0.6315 -0.6315 -0.4499
vn 0.3418 -0.8251 -0.4499
vn -0.0000 -0.8931 -0.4499
vn -0.3418 -0.8251 -0.4499
vn -0.6315 -0.6315 -0.4499
vn -0.8251 -0.3418 -0.4499
vn -0.8931 -0.0000 -0.4499
vn -0.8251 0.3418 -0.4499
vn -0.6315 0.6315 -0.4499
vn -0.3418 0.8251 -0.4499
vn -0.0000 0.8931 -0.4499
vn 0.3418 0.8251 -0.4499
vn 0.6315 0.6315 -0.4499
vn 0.8251 0.3418 -0.4499
vn 0.8004 -0.3315 -0.4995
vn 0.8663 -0.0000 -0.4995
vn 0.6126 -0.6126 -0.4995
vn 0.3315 -0.8004 -0.4995
vn 0.0000 -0.8663 -0.4995
vn -0.3315 -0.8004 -0.4995
vn -0.6126 -0.6126 -0.4995
vn -0.8004 -0.3315 -0.4995
vn -0.8663 -0.0000 -0.4995
vn -0.8004 0.3315 -0.4995
vn -0.6126 0.6126 -0.4995
vn -0.3315 0.8004 -0.4995
vn -0.0000 0.8663 -0.4995
vn 0.3315 0.8004 -0.4995
vn 0.6126 0.6126 -0.4995
vn 0.8004 0.3315 -0.4995
vn 0.7530 -0.3119 -0.5794
vn 0.8151 -0.0000 -0.5794
vn 0.5763 -0.5763 -0.5794
vn 0.3119 -0.7530 -0.5794
vn 0.0000 -0.8151 -0.5794
vn -0.3119 -0.7530 -0.5794
vn -0.5763 -0.5763 -0.5794
vn -0.7530 -0.3119 -0.5794
vn -0.8151 -0.0000 -0.5794
vn -0.7530 0.3119 -0.5794
vn -0.5763 0.5763 -0.5794
vn -0.3119 0.7530 -0.5794
vn 0.0000 0.8151 -0.5794
vn 0.3119 0.7530 -0.5794
vn 0.5763 0.5763 -0.5794
vn 0.7530 0.3119 -0.5794
vn 0.0000 0.0000 -1.0000
vn 1.0000 -0.0000 -0.0000
vn 0.9239 -0.3827 -0.0000
vn 0.9239 0.3827 0.0000
vn 0.7071 0.7071 0.0000
vn 0.3827 0.9239 -0.0000
vn 0.0000 1.0000 -0.0000
vn -0.3827 0.9239 0.0000
vn -0.7071 0.7071 0.0000
vn -0.9239 0.3827 0.0000
vn -1.0000 -0.0000 0.0000
vn -0.9239 -0.3827 -0.0000
vn -0.7071 -0.7071 -0.0000
vn -0.3827 -0.9239 -0.0000
vn -0.0000 -1.0000 -0.0000
vn 0.3827 -0.9239 -0.0000
vn 0.7071 -0.7071 -0.0000
vn 0.8520 -0.3529 0.3867
vn 0.9222 -0.0000 0.3867
vn 0.8520 0.3529 0.3867
vn 0.6521 0.6521 0.3867
vn 0.3529 0.8520 0.3867
vn 0.0000 0.9222 0.3867
vn -0.3529 0.8520 0.3867
vn -0.6521 0.6521 0.3867
vn -0.8520 0.3529 0.3867
vn -0.9222 -0.0000 0.3867
vn -0.8520 -0.3529 0.3867
vn -0.6521 -0.6521 0.3867
vn -0.3529 -0.8520 0.3867
vn 0.0000 -0.9222 0.3867
vn 0.3529 -0.8520 0.3867
vn 0.6521 -0.6521 0.3867
vn 0.3827 0.9239 0.0000
vn 0.0000 1.0000 0.0000
vn -0.3827 0.9239 -0.0000
vn -0.7071 0.7071 -0.0000
vn -1.0000 -0.0000 -0.0000
# 134 vertex normals

vt -0.0394 0.0000 0.8478
vt -0.0625 0.0000 1.0000
vt 0.0000 0.0000 1.0000
vt 0.7500 0.0000 1.0000
vt 0.0625 0.0000 1.0000
vt 0.1250 0.0000 1.0000
vt 0.2500 0.0000 1.0000
vt 0.1875 0.0000 1.0000
vt 0.3125 0.0000 1.0000
vt 0.3750 0.0000 1.0000
vt 0.5000 0.0000 1.0000
vt 0.4375 0.0000 1.0000
vt 0.5625 0.0000 1.0000
vt 0.6250 0.0000 1.0000
vt 0.6875 0.0000 1.0000
vt 0.0659 0.0000 0.5665
vt 0.6875 0.2000 1.0000
vt 0.7500 0.2000 1.0000
vt 0.6250 0.2000 1.0000
vt 0.5625 0.2000 1.0000
vt 0.5000 0.2000 1.0000
vt 0.4375 0.2000 1.0000
vt 0.3750 0.2000 1.0000
vt 0.3125 0.2000 1.0000
vt 0.2500 0.2000 1.0000
vt 0.1875 0.2000 1.0000
vt 0.1250 0.2000 1.0000
vt 0.0625 0.2000 1.0000
vt 0.0000 0.2000 1.0000
vt -0.0625 0.2000 1.0000
vt 0.9375 0.0000 1.0000
vt 0.8750 0.0000 1.0000
vt 0.8750 0.2000 1.0000
vt 0.9375 0.2000 1.0000
vt 0.8125 0.0000 1.0000
vt 0.8125 0.2000 1.0000
vt 0.6875 0.4000 1.0000
vt 0.7500 0.4000 1.0000
vt 0.6250 0.4000 1.0000
vt 0.5625 0.4000 1.0000
vt 0.5000 0.4000 1.0000
vt 0.4375 0.4000 1.0000
vt 0.3750 0.4000 1.0000
vt 0.3125 0.4000 1.0000
vt 0.2500 0.4000 1.0000
vt 0.1875 0.4000 1.0000
vt 0.1250 0.4000 1.0000
vt 0.0625 0.4000 1.0000
vt 0.0000 0.4000 1.0000
vt -0.0625 0.4000 1.0000
vt 0.8750 0.4000 1.0000
vt 0.9375 0.4000 1.0000
vt 0.8125 0.4000 1.0000
vt 0.6875 0.6000 1.0000
vt 0.7500 0.6000 1.0000
vt 0.6250 0.6000 1.0000
vt 0.5625 0.6000 1.0000
vt 0.5000 0.6000 1.0000
vt 0.4375 0.6000 1.0000
vt 0.3750 0.6000 1.0000
vt 0.3125 0.6000 1.0000
vt 0.2500 0.6000 1.0000
vt 0.1875 0.6000 1.0000
vt 0.1250 0.6000 1.0000
vt 0.0625 0.6000 1.0000
vt 0.0000 0.6000 1.0000
vt -0.0625 0.6000 1.0000
vt 0.8750 0.6000 1.0000
vt 0.9375 0.6000 1.0000
vt 0.8125 0.6000 1.0000
vt 0.6875 0.8000 1.0000
vt 0.7500 0.8000 1.0000
vt 0.6250 0.8000 1.0000
vt 0.5625 0.8000 1.0000
vt 0.5000 0.8000 1.0000
vt 0.4375 0.8000 1.0000
vt 0.3750 0.8000 1.0000
vt 0.3125 0.8000 1.0000
vt 0.2500 0.8000 1.0000
vt 0.1875 0.8000 1.0000
vt 0.1250 0.8000 1.0000
vt 0.0625 0.8000 1.0000
vt 0.0000 0.8000 1.0000
vt -0.0625 0.8000 1.0000
vt 0.8750 0.8000 1.0000
vt 0.9375 0.8000 1.0000
vt 0.8125 0.8000 1.0000
vt 0.3750 1.0000 1.0000
vt 0.9063 1.0000 1.0000
vt 0.6258 0.0000 0.8916
vt 0.6464 0.0000 0.9619
vt 0.2525 0.0000 0.6748
vt 0.4392 0.0000 0.7832
vt 0.1892 0.0000 0.8858
vt 0.4178 0.0000 0.9239
# 95 texture coords

g mortar

s 1
f 1/1/1 2/2/2 3/3/3 4/4/4 
f 3/3/3 5/5/5 6/6/6 7/7/7 
f 6/6/6 8/8/8 7/7/7 
f 7/7/7 9/9/9 10/10/10 11/11/11 
f 10/10/10 12/12/12 11/11/11 
f 11/11/11 13/13/13 14/14/14 4/4/4 
f 14/14/14 15/15/15 4/4/4 
f 7/7/7 11/11/11 4/4/4 3/3/3 
f 16/16/16 1/1/1 4/4/4 
f 17/4/17 18/15/18 19/17/19 20/18/20 
f 18/15/18 21/14/21 22/19/22 19/17/19 
f 21/14/21 23/13/23 24/20/24 22/19/22 
f 23/13/23 25/11/25 26/21/26 24/20/24 
f 25/11/25 27/12/27 28/22/28 26/21/26 
f 27/12/27 29/10/29 30/23/30 28/22/28 
f 29/10/29 31/9/31 32/24/32 30/23/30 
f 31/9/31 33/7/33 34/25/34 32/24/32 
f 33/7/33 35/8/35 36/26/36 34/25/34 
f 35/8/35 37/6/37 38/27/38 36/26/36 
f 37/6/37 39/5/39 40/28/40 38/27/38 
f 39/5/39 41/3/41 42/29/42 40/28/40 
f 41/3/41 43/2/43 44/30/44 42/29/42 
f 43/31/43 45/32/45 46/33/46 44/34/44 
f 45/32/45 47/35/47 48/36/48 46/33/46 
f 47/35/47 17/4/17 20/18/20 48/36/48 
f 20/18/20 19/17/19 49/37/49 50/38/50 
f 19/17/19 22/19/22 51/39/51 49/37/49 
f 22/19/22 24/20/24 52/40/52 51/39/51 
f 24/20/24 26/21/26 53/41/53 52/40/52 
f 26/21/26 28/22/28 54/42/54 53/41/53 
f 28/22/28 30/23/30 55/43/55 54/42/54 
f 30/23/30 32/24/32 56/44/56 55/43/55 
f 32/24/32 34/25/34 57/45/57 56/44/56 
f 34/25/34 36/26/36 58/46/58 57/45/57 
f 36/26/36 38/27/38 59/47/59 58/46/58 
f 38/27/38 40/28/40 60/48/60 59/47/59 
f 40/28/40 42/29/42 61/49/61 60/48/60 
f 42/29/42 44/30/44 62/50/62 61/49/61 
f 44/34/44 46/33/46 63/51/63 62/52/62 
f 46/33/46 48/36/48 64/53/64 63/51/63 
f 48/36/48 20/18/20 50/38/50 64/53/64 
f 50/38/50 49/37/49 65/54/65 66/55/66 
f 49/37/49 51/39/51 67/56/67 65/54/65 
f 51/39/51 52/40/52 68/57/68 67/56/67 
f 52/40/52 53/41/53 69/58/69 68/57/68 
f 53/41/53 54/42/54 70/59/70 69/58/69 
f 54/42/54 55/43/55 71/60/71 70/59/70 
f 55/43/55 56/44/56 72/61/72 71/60/71 
f 56/44/56 57/45/57 73/62/73 72/61/72 
f 57/45/57 58/46/58 74/63/74 73/62/73 
f 58/46/58 59/47/59 75/64/75 74/63/74 
f 59/47/59 60/48/60 76/65/76 75/64/75 
f 60/48/60 61/49/61 77/66/77 76/65/76 
f 61/49/61 62/50/62 78/67/78 77/66/77 
f 62/52/62 63/51/63 79/68/79 78/69/78 
f 63/51/63 64/53/64 80/70/80 79/68/79 
f 64/53/64 50/38/50 66/55/66 80/70/80 
f 66/55/66 65/54/65 81/71/81 82/72/82 
f 65/54/65 67/56/67 83/73/83 81/71/81 
f 67/56/67 68/57/68 84/74/84 83/73/83 
f 68/57/68 69/58/69 85/75/85 84/74/84 
f 69/58/69 70/59/70 86/76/86 85/75/85 
f 70/59/70 71/60/71 87/77/87 86/76/86 
f 71/60/71 72/61/72 88/78/88 87/77/87 
f 72/61/72 73/62/73 89/79/89 88/78/88 
f 73/62/73 74/63/74 90/80/90 89/79/89 
f 74/63/74 75/64/75 91/81/91 90/80/90 
f 75/64/75 76/65/76 92/82/92 91/81/91 
f 76/65/76 77/66/77 93/83/93 92/82/92 
f 77/66/77 78/67/78 94/84/94 93/83/93 
f 78/69/78 79/68/79 95/85/95 94/86/94 
f 79/68/79 80/70/80 96/87/96 95/85/95 
f 80/70/80 66/55/66 82/72/82 96/87/96 
f 82/72/82 81/71/81 97/88/97 
f 81/71/81 83/73/83 97/88/97 
f 83/73/83 84/74/84 97/88/97 
f 84/74/84 85/75/85 97/88/97 
f 85/75/85 86/76/86 97/88/97 
f 86/76/86 87/77/87 97/88/97 
f 87/77/87 88/78/88 97/88/97 
f 88/78/88 89/79/89 97/88/97 
f 89/79/89 90/80/90 97/88/97 
f 90/80/90 91/81/91 97/88/97 
f 91/81/91 92/82/92 97/88/97 
f 92/82/92 93/83/93 97/88/97 
f 93/83/93 94/84/94 97/88/97 
f 94/86/94 95/85/95 97/89/97 
f 95/85/95 96/87/96 97/89/97 
f 96/87/96 82/72/82 97/88/97 
f 17/4/17 98/4/98 99/15/99 18/15/18 
f 47/35/47 100/90/100 98/4/98 17/4/17 
f 45/32/45 101/91/101 100/90/100 47/35/47 
f 43/31/43 102/15/102 101/91/101 45/32/45 
f 41/3/41 103/3/103 102/2/102 43/2/43 
f 39/5/39 104/5/104 103/3/103 41/3/41 
f 37/6/37 105/6/105 104/5/104 39/5/39 
f 35/8/35 106/8/106 105/6/105 37/6/37 
f 33/7/33 107/7/107 106/8/106 35/8/35 
f 31/9/31 108/9/108 107/7/107 33/7/33 
f 29/10/29 109/10/109 108/9/108 31/9/31 
f 27/12/27 110/12/110 109/10/109 29/10/29 
f 25/11/25 111/11/111 110/12/110 27/12/27 
f 23/13/23 112/13/112 111/11/111 25/11/25 
f 21/14/21 113/14/113 112/13/112 23/13/23 
f 18/15/18 99/15/99 113/14/113 21/14/21 
f 114/15/114 115/4/115 4/4/4 15/15/15 
f 115/4/115 116/16/116 16/16/16 4/4/4 
f 116/16/116 117/1/117 1/1/1 16/16/16 
f 117/1/117 118/2/118 2/2/2 1/1/1 
f 118/2/118 119/3/119 3/3/3 2/2/2 
f 119/3/119 120/5/120 5/5/5 3/3/3 
f 120/5/120 121/6/121 6/6/6 5/5/5 
f 121/6/121 122/8/122 8/8/8 6/6/6 
f 122/8/122 123/7/123 7/7/7 8/8/8 
f 123/7/123 124/9/124 9/9/9 7/7/7 
f 124/9/124 125/10/125 10/10/10 9/9/9 
f 125/10/125 126/12/126 12/12/12 10/10/10 
f 126/12/126 127/11/127 11/11/11 12/12/12 
f 127/11/127 128/13/128 13/13/13 11/11/11 
f 128/13/128 129/14/129 14/14/14 13/13/13 
f 129/14/129 114/15/114 15/15/15 14/14/14 
f 130/4/98 131/15/99 132/15/99 133/4/98 
f 134/92/100 130/4/98 133/4/98 135/93/100 
f 136/94/101 134/92/100 135/93/100 137/95/101 
f 138/8/130 136/94/101 137/95/101 139/12/102 
f 140/3/131 138/2/130 139/2/102 141/3/103 
f 142/5/104 140/3/131 141/3/103 143/5/132 
f 144/6/105 142/5/104 143/5/132 145/6/133 
f 146/8/106 144/6/105 145/6/133 147/8/106 
f 148/7/134 146/8/106 147/8/106 149/7/134 
f 150/9/108 148/7/134 149/7/134 151/9/108 
f 152/10/109 150/9/108 151/9/108 153/10/109 
f 154/12/110 152/10/109 153/10/109 155/12/110 
f 156/11/111 154/12/110 155/12/110 157/11/111 
f 158/13/112 156/11/111 157/11/111 159/13/112 
f 160/14/113 158/13/112 159/13/112 161/14/113 
f 131/15/99 160/14/113 161/14/113 132/15/99 
f 133/4/98 132/15/99 99/15/99 98/4/98 
f 135/93/100 133/4/98 98/4/98 100/90/100 
f 137/95/101 135/93/100 100/90/100 101/91/101 
f 139/12/102 137/95/101 101/91/101 102/15/102 
f 141/3/103 139/2/102 102/2/102 103/3/103 
f 143/5/132 141/3/103 103/3/103 104/5/104 
f 145/6/133 143/5/132 104/5/104 105/6/105 
f 147/8/106 145/6/133 105/6/105 106/8/106 
f 149/7/134 147/8/106 106/8/106 107/7/107 
f 151/9/108 149/7/134 107/7/107 108/9/108 
f 153/10/109 151/9/108 108/9/108 109/10/109 
f 155/12/110 153/10/109 109/10/109 110/12/110 
f 157/11/111 155/12/110 110/12/110 111/11/111 
f 159/13/112 157/11/111 111/11/111 112/13/112 
f 161/14/113 159/13/112 112/13/112 113/14/113 
f 132/15/99 161/14/113 113/14/113 99/15/99 
f 115/4/115 114/15/114 131/15/99 130/4/98 
f 116/16/116 115/4/115 130/4/98 134/92/100 
f 117/1/117 116/16/116 134/92/100 136/94/101 
f 118/2/118 117/1/117 136/94/101 138/8/130 
f 119/3/119 118/2/118 138/2/130 140/3/131 
f 120/5/120 119/3/119 140/3/131 142/5/104 
f 121/6/121 120/5/120 142/5/104 144/6/105 
f 122/8/122 121/6/121 144/6/105 146/8/106 
f 123/7/123 122/8/122 146/8/106 148/7/134 
f 124/9/124 123/7/123 148/7/134 150/9/108 
f 125/10/125 124/9/124 150/9/108 152/10/109 
f 126/12/126 125/10/125 152/10/109 154/12/110 
f 127/11/127 126/12/126 154/12/110 156/11/111 
f 128/13/128 127/11/127 156/11/111 158/13/112 
f 129/14/129 128/13/128 158/13/112 160/14/113 
f 114/15/114 129/14/129 160/14/113 131/15/99 
# 149 polygons - 20 triangles

